<svg width="200" height="200" viewBox="0 0 200 200" fill="none" xmlns="http://www.w3.org/2000/svg">
<ellipse cx="11.6327" cy="11.5" rx="11.6327" ry="11.5" transform="matrix(-1 0 0 1 43.2654 123)" fill="#323232" fill-opacity="0.06"/>
<ellipse cx="11.6327" cy="11.5" rx="11.6327" ry="11.5" transform="matrix(-1 0 0 1 77.4491 122)" fill="black"/>
<ellipse cx="11.6327" cy="11.5" rx="11.6327" ry="11.5" transform="matrix(-1 0 0 1 111.449 122)" fill="#323232" fill-opacity="0.06"/>
<ellipse cx="11.6327" cy="11.5" rx="11.6327" ry="11.5" transform="matrix(-1 0 0 1 145.449 122)" fill="#323232" fill-opacity="0.06"/>
<ellipse cx="11.6327" cy="11.5" rx="11.6327" ry="11.5" transform="matrix(-1 0 0 1 179.449 122)" fill="black"/>
<ellipse cx="11.6327" cy="11.5" rx="11.6327" ry="11.5" transform="matrix(-1 0 0 1 43.2654 157)" fill="black"/>
<ellipse cx="11.6327" cy="11.5" rx="11.6327" ry="11.5" transform="matrix(-1 0 0 1 77.449 156)" fill="#323232" fill-opacity="0.06"/>
<ellipse cx="65.3801" cy="31.5" rx="11.6327" ry="11.5" fill="#323232" fill-opacity="0.06"/>
<ellipse cx="99.3801" cy="31.5" rx="11.6327" ry="11.5" fill="#323232" fill-opacity="0.06"/>
<ellipse cx="133.38" cy="31.5" rx="11.6327" ry="11.5" fill="#323232" fill-opacity="0.06"/>
<ellipse cx="167.38" cy="31.5" rx="11.6327" ry="11.5" fill="black"/>
<ellipse cx="31.6327" cy="31.5" rx="11.6327" ry="11.5" fill="black"/>
<ellipse cx="31.6327" cy="66.5" rx="11.6327" ry="11.5" fill="#323232" fill-opacity="0.06"/>
<ellipse cx="65.8164" cy="65.5" rx="11.6327" ry="11.5" fill="black"/>
<ellipse cx="99.8164" cy="65.5" rx="11.6327" ry="11.5" fill="#323232" fill-opacity="0.06"/>
<ellipse cx="133.816" cy="65.5" rx="11.6327" ry="11.5" fill="#323232" fill-opacity="0.06"/>
<ellipse cx="167.816" cy="65.5" rx="11.6327" ry="11.5" fill="black"/>
<ellipse cx="31.6327" cy="100.5" rx="11.6327" ry="11.5" fill="#323232" fill-opacity="0.06"/>
<ellipse cx="65.8164" cy="99.5" rx="11.6327" ry="11.5" fill="#323232" fill-opacity="0.06"/>
<ellipse cx="99.8164" cy="99.5" rx="11.6327" ry="11.5" fill="black"/>
<ellipse cx="133.816" cy="99.5" rx="11.6327" ry="11.5" fill="#323232" fill-opacity="0.06"/>
<ellipse cx="167.816" cy="99.5" rx="11.6327" ry="11.5" fill="black"/>
<ellipse cx="100" cy="168.5" rx="11.6327" ry="11.5" fill="#323232" fill-opacity="0.06"/>
<ellipse cx="168.367" cy="168.5" rx="11.6327" ry="11.5" fill="black"/>
<ellipse cx="134.184" cy="168.5" rx="11.6327" ry="11.5" fill="#323232" fill-opacity="0.06"/>
</svg>
